<svg version="1.1" xmlns="http://www.w3.org/2000/svg" xmlns:xlink="http://www.w3.org/1999/xlink" width="1000px" height="1000px" viewBox="0,0,256,256"><g fill="#479042" fill-rule="nonzero" stroke="none" stroke-width="1" stroke-linecap="butt" stroke-linejoin="miter" stroke-miterlimit="10" stroke-dasharray="" stroke-dashoffset="0" font-family="none" font-weight="none" font-size="none" text-anchor="none" style="mix-blend-mode: normal"><g transform="translate(-0.0128,-0.0128) scale(0.256,0.256)"><g><path d="M959.4,775.6h-183.8v183.8c0,16.9 -13.7,30.7 -30.6,30.7c-16.9,0 -30.7,-13.7 -30.7,-30.7v-183.8h-183.7c-16.9,0 -30.6,-13.7 -30.6,-30.6c0,-16.9 13.7,-30.6 30.6,-30.6h183.8v-183.8c0,-16.9 13.7,-30.7 30.7,-30.7c16.9,0 30.6,13.7 30.6,30.7v183.8h183.8c16.9,0 30.6,13.7 30.6,30.6c-0.1,16.9 -13.8,30.6 -30.7,30.6M806.2,281.2c0,-124.2 -75.9,-210 -210,-210h-315c-134.1,0 -210,80.8 -210,210v315c0,124.2 82.5,210 210,210h111.5v61.2h-137.7c-135.3,0 -245,-109.7 -245,-245v-367.4c0,-135.3 109.7,-245 245,-245h367.5c135.3,0 245,109.7 245,245v137.8h-61.3v-111.6z"></path></g></g></g></svg>