<svg version="1.1" xmlns="http://www.w3.org/2000/svg" xmlns:xlink="http://www.w3.org/1999/xlink" width="1000px" height="1000px" viewBox="0,0,256,256"><g fill="#479042" fill-rule="nonzero" stroke="none" stroke-width="1" stroke-linecap="butt" stroke-linejoin="miter" stroke-miterlimit="10" stroke-dasharray="" stroke-dashoffset="0" font-family="none" font-weight="none" font-size="none" text-anchor="none" style="mix-blend-mode: normal"><g transform="scale(0.256,0.256)"><g><path d="M500,10c-270.7,0 -490,219.3 -490,490c0,270.7 219.3,490 490,490c270.7,0 490,-219.3 490,-490c0,-270.7 -219.5,-490 -490,-490zM204.1,826.3c46.2,-118.9 160.6,-203.8 295.9,-203.8c135.3,0 249.7,84.9 295.9,203.8c-78.3,71.1 -181.8,114.8 -295.9,114.8c-114.1,-0.2 -217.6,-43.9 -295.9,-114.8zM353,426.4c0,-81.2 65.8,-147 147,-147c81.2,0 147,65.8 147,147c0,81.2 -65.8,147 -147,147c-81.2,0 -147,-65.8 -147,-147zM832.8,788.6c-43.3,-94.5 -124.6,-167.6 -225.1,-198.7c53.2,-35 88.3,-95.1 88.3,-163.6c0,-108.3 -87.8,-195.9 -195.9,-195.9c-108.1,0 -195.9,87.8 -195.9,195.9c0,68.4 35.1,128.4 88.3,163.6c-100.5,30.9 -181.8,104.1 -225.1,198.7c-67.5,-77.4 -108.5,-178.1 -108.5,-288.6c0,-243.6 197.4,-440.9 440.9,-440.9c243.6,0 440.9,197.4 440.9,440.9c0.2,110.5 -40.7,211.2 -107.9,288.6z"></path></g></g></g></svg>